<?xml version="1.0" encoding="utf-8"?>
<!-- Generator: Adobe Illustrator 16.0.0, SVG Export Plug-In . SVG Version: 6.00 Build 0)  -->
<!DOCTYPE svg PUBLIC "-//W3C//DTD SVG 1.1//EN" "http://www.w3.org/Graphics/SVG/1.1/DTD/svg11.dtd">
<svg version="1.1" id="Layer_1" xmlns="http://www.w3.org/2000/svg" xmlns:xlink="http://www.w3.org/1999/xlink" x="0px" y="0px"
	 width="68px" height="68px" viewBox="0 0 68 68" enable-background="new 0 0 68 68" xml:space="preserve">
<g>
	<rect x="56.406" y="25.337" fill="#FFFFFF" width="6.607" height="2.664"/>
	<polyline fill="#FFFFFF" points="4.983,27.907 4.983,60.548 20.806,60.548 20.806,57.884 7.898,57.95 7.898,23.11 	"/>
	<polyline fill="#FFFFFF" points="48.422,29.329 48.422,32.37 41.84,32.371 41.84,53.167 59.938,53.167 59.941,44.213 
		50.054,44.213 50.054,29.329 63.018,29.329 63.018,32.37 53.146,32.37 53.146,41.113 63.018,41.113 63.014,56.218 38.67,56.218 
		38.67,32.37 27.828,32.37 27.828,56.218 9.638,56.218 9.638,10.892 12.886,16.063 12.886,53.167 24.819,53.167 24.819,29.329 
		27.828,29.329 	"/>
	<rect x="24.668" y="25.157" fill="#FFFFFF" width="3.408" height="3.47"/>
	<rect x="41.479" y="25.443" fill="#FFFFFF" width="6.87" height="2.665"/>
</g>
</svg>
